<svg width="270" height="175" viewBox="0 0 270 175" fill="none" xmlns="http://www.w3.org/2000/svg">
<rect width="50" height="50" rx="15" fill="#7752BE"/>
<path d="M30.1161 26.5982C30.3006 26.7768 30.3423 26.9821 30.2411 27.2143C30.1399 27.4524 29.9643 27.5714 29.7143 27.5714H26.3036L28.0982 31.8214C28.1577 31.9702 28.1577 32.1161 28.0982 32.2589C28.0387 32.4018 27.9375 32.506 27.7946 32.5714L26.2143 33.2411C26.0655 33.3006 25.9196 33.3006 25.7768 33.2411C25.6339 33.1815 25.5298 33.0804 25.4643 32.9375L23.7589 28.9018L20.9732 31.6875C20.8601 31.8006 20.7262 31.8571 20.5714 31.8571C20.5 31.8571 20.4286 31.8423 20.3571 31.8125C20.119 31.7113 20 31.5357 20 31.2857V17.8571C20 17.6071 20.119 17.4315 20.3571 17.3304C20.4286 17.3006 20.5 17.2857 20.5714 17.2857C20.7321 17.2857 20.8661 17.3423 20.9732 17.4554L30.1161 26.5982Z" fill="white"/>
<path d="M4.256 142L0.512 130.8H2.16L5.6 141.136H4.768L8.336 130.8H9.808L13.296 141.136H12.496L15.984 130.8H17.504L13.76 142H12.08L8.816 132.416H9.248L5.968 142H4.256ZM23.9996 133.44C24.693 133.44 25.301 133.573 25.8236 133.84C26.357 134.107 26.773 134.512 27.0716 135.056C27.3703 135.6 27.5196 136.288 27.5196 137.12V142H25.9836V137.296C25.9836 136.475 25.781 135.856 25.3756 135.44C24.981 135.024 24.421 134.816 23.6956 134.816C23.1516 134.816 22.677 134.923 22.2716 135.136C21.8663 135.349 21.5516 135.664 21.3276 136.08C21.1143 136.496 21.0076 137.013 21.0076 137.632V142H19.4716V130.128H21.0076V135.808L20.7036 135.2C20.981 134.645 21.4076 134.213 21.9836 133.904C22.5596 133.595 23.2316 133.44 23.9996 133.44ZM30.3623 142V133.52H31.8983V142H30.3623ZM31.1303 131.888C30.8316 131.888 30.5809 131.792 30.3783 131.6C30.1863 131.408 30.0903 131.173 30.0903 130.896C30.0903 130.608 30.1863 130.368 30.3783 130.176C30.5809 129.984 30.8316 129.888 31.1303 129.888C31.4289 129.888 31.6743 129.984 31.8663 130.176C32.0689 130.357 32.1703 130.587 32.1703 130.864C32.1703 131.152 32.0743 131.397 31.8823 131.6C31.6903 131.792 31.4396 131.888 31.1303 131.888ZM34.831 142V130.128H36.367V142H34.831ZM43.0758 142.096C42.1691 142.096 41.3691 141.909 40.6758 141.536C39.9931 141.163 39.4598 140.651 39.0758 140C38.7024 139.349 38.5158 138.603 38.5158 137.76C38.5158 136.917 38.6971 136.171 39.0598 135.52C39.4331 134.869 39.9398 134.363 40.5798 134C41.2304 133.627 41.9611 133.44 42.7718 133.44C43.5931 133.44 44.3184 133.621 44.9478 133.984C45.5771 134.347 46.0678 134.859 46.4198 135.52C46.7824 136.171 46.9638 136.933 46.9638 137.808C46.9638 137.872 46.9584 137.947 46.9478 138.032C46.9478 138.117 46.9424 138.197 46.9318 138.272H39.7158V137.168H46.1318L45.5078 137.552C45.5184 137.008 45.4064 136.523 45.1718 136.096C44.9371 135.669 44.6118 135.339 44.1958 135.104C43.7904 134.859 43.3158 134.736 42.7718 134.736C42.2384 134.736 41.7638 134.859 41.3478 135.104C40.9318 135.339 40.6064 135.675 40.3718 136.112C40.1371 136.539 40.0198 137.029 40.0198 137.584V137.84C40.0198 138.405 40.1478 138.912 40.4038 139.36C40.6704 139.797 41.0384 140.139 41.5078 140.384C41.9771 140.629 42.5158 140.752 43.1238 140.752C43.6251 140.752 44.0784 140.667 44.4838 140.496C44.8998 140.325 45.2624 140.069 45.5718 139.728L46.4198 140.72C46.0358 141.168 45.5558 141.509 44.9798 141.744C44.4144 141.979 43.7798 142.096 43.0758 142.096ZM64.0015 133.44C64.6842 133.44 65.2868 133.573 65.8095 133.84C66.3322 134.107 66.7375 134.512 67.0255 135.056C67.3242 135.6 67.4735 136.288 67.4735 137.12V142H65.9375V137.296C65.9375 136.475 65.7455 135.856 65.3615 135.44C64.9775 135.024 64.4388 134.816 63.7455 134.816C63.2335 134.816 62.7855 134.923 62.4015 135.136C62.0175 135.349 61.7188 135.664 61.5055 136.08C61.3028 136.496 61.2015 137.013 61.2015 137.632V142H59.6655V137.296C59.6655 136.475 59.4735 135.856 59.0895 135.44C58.7162 135.024 58.1775 134.816 57.4735 134.816C56.9722 134.816 56.5295 134.923 56.1455 135.136C55.7615 135.349 55.4628 135.664 55.2495 136.08C55.0362 136.496 54.9295 137.013 54.9295 137.632V142H53.3935V133.52H54.8655V135.776L54.6255 135.2C54.8922 134.645 55.3028 134.213 55.8575 133.904C56.4122 133.595 57.0575 133.44 57.7935 133.44C58.6042 133.44 59.3028 133.643 59.8895 134.048C60.4762 134.443 60.8602 135.045 61.0415 135.856L60.4175 135.6C60.6735 134.949 61.1215 134.427 61.7615 134.032C62.4015 133.637 63.1482 133.44 64.0015 133.44ZM73.9318 142.096C73.0784 142.096 72.3211 141.909 71.6598 141.536C70.9984 141.163 70.4758 140.651 70.0918 140C69.7078 139.339 69.5158 138.592 69.5158 137.76C69.5158 136.917 69.7078 136.171 70.0918 135.52C70.4758 134.869 70.9984 134.363 71.6598 134C72.3211 133.627 73.0784 133.44 73.9318 133.44C74.7744 133.44 75.5264 133.627 76.1878 134C76.8598 134.363 77.3824 134.869 77.7558 135.52C78.1398 136.16 78.3318 136.907 78.3318 137.76C78.3318 138.603 78.1398 139.349 77.7558 140C77.3824 140.651 76.8598 141.163 76.1878 141.536C75.5264 141.909 74.7744 142.096 73.9318 142.096ZM73.9318 140.752C74.4758 140.752 74.9611 140.629 75.3878 140.384C75.8251 140.139 76.1664 139.792 76.4118 139.344C76.6571 138.885 76.7798 138.357 76.7798 137.76C76.7798 137.152 76.6571 136.629 76.4118 136.192C76.1664 135.744 75.8251 135.397 75.3878 135.152C74.9611 134.907 74.4758 134.784 73.9318 134.784C73.3878 134.784 72.9024 134.907 72.4758 135.152C72.0491 135.397 71.7078 135.744 71.4518 136.192C71.1958 136.629 71.0678 137.152 71.0678 137.76C71.0678 138.357 71.1958 138.885 71.4518 139.344C71.7078 139.792 72.0491 140.139 72.4758 140.384C72.9024 140.629 73.3878 140.752 73.9318 140.752ZM82.888 142.096C82.184 142.096 81.512 142 80.872 141.808C80.2427 141.616 79.7467 141.381 79.384 141.104L80.024 139.888C80.3867 140.133 80.8347 140.341 81.368 140.512C81.9013 140.683 82.4453 140.768 83 140.768C83.7147 140.768 84.2267 140.667 84.536 140.464C84.856 140.261 85.016 139.979 85.016 139.616C85.016 139.349 84.92 139.141 84.728 138.992C84.536 138.843 84.28 138.731 83.96 138.656C83.6507 138.581 83.304 138.517 82.92 138.464C82.536 138.4 82.152 138.325 81.768 138.24C81.384 138.144 81.032 138.016 80.712 137.856C80.392 137.685 80.136 137.456 79.944 137.168C79.752 136.869 79.656 136.475 79.656 135.984C79.656 135.472 79.8 135.024 80.088 134.64C80.376 134.256 80.7813 133.963 81.304 133.76C81.8373 133.547 82.4667 133.44 83.192 133.44C83.7467 133.44 84.3067 133.509 84.872 133.648C85.448 133.776 85.9173 133.963 86.28 134.208L85.624 135.424C85.24 135.168 84.84 134.992 84.424 134.896C84.008 134.8 83.592 134.752 83.176 134.752C82.504 134.752 82.0027 134.864 81.672 135.088C81.3413 135.301 81.176 135.579 81.176 135.92C81.176 136.208 81.272 136.432 81.464 136.592C81.6667 136.741 81.9227 136.859 82.232 136.944C82.552 137.029 82.904 137.104 83.288 137.168C83.672 137.221 84.056 137.296 84.44 137.392C84.824 137.477 85.1707 137.6 85.48 137.76C85.8 137.92 86.056 138.144 86.248 138.432C86.4507 138.72 86.552 139.104 86.552 139.584C86.552 140.096 86.4027 140.539 86.104 140.912C85.8053 141.285 85.384 141.579 84.84 141.792C84.296 141.995 83.6453 142.096 82.888 142.096ZM91.3836 142.096C90.5303 142.096 89.869 141.867 89.3996 141.408C88.9303 140.949 88.6956 140.293 88.6956 139.44V131.664H90.2316V139.376C90.2316 139.835 90.3436 140.187 90.5676 140.432C90.8023 140.677 91.133 140.8 91.5596 140.8C92.0396 140.8 92.4396 140.667 92.7596 140.4L93.2396 141.504C93.005 141.707 92.7223 141.856 92.3916 141.952C92.0716 142.048 91.7356 142.096 91.3836 142.096ZM87.2556 134.784V133.52H92.6636V134.784H87.2556ZM103.89 142.096C103.186 142.096 102.54 141.936 101.954 141.616C101.378 141.285 100.914 140.8 100.562 140.16C100.22 139.52 100.049 138.72 100.049 137.76C100.049 136.8 100.215 136 100.546 135.36C100.887 134.72 101.346 134.24 101.922 133.92C102.508 133.6 103.164 133.44 103.89 133.44C104.722 133.44 105.458 133.621 106.098 133.984C106.738 134.347 107.244 134.853 107.618 135.504C107.991 136.144 108.178 136.896 108.178 137.76C108.178 138.624 107.991 139.381 107.618 140.032C107.244 140.683 106.738 141.189 106.098 141.552C105.458 141.915 104.722 142.096 103.89 142.096ZM99.3935 145.104V133.52H100.866V135.808L100.77 137.776L100.93 139.744V145.104H99.3935ZM103.762 140.752C104.306 140.752 104.791 140.629 105.218 140.384C105.655 140.139 105.996 139.792 106.242 139.344C106.498 138.885 106.626 138.357 106.626 137.76C106.626 137.152 106.498 136.629 106.242 136.192C105.996 135.744 105.655 135.397 105.218 135.152C104.791 134.907 104.306 134.784 103.762 134.784C103.228 134.784 102.743 134.907 102.306 135.152C101.879 135.397 101.538 135.744 101.282 136.192C101.036 136.629 100.914 137.152 100.914 137.76C100.914 138.357 101.036 138.885 101.282 139.344C101.538 139.792 101.879 140.139 102.306 140.384C102.743 140.629 103.228 140.752 103.762 140.752ZM114.076 142.096C113.169 142.096 112.369 141.909 111.676 141.536C110.993 141.163 110.46 140.651 110.076 140C109.702 139.349 109.516 138.603 109.516 137.76C109.516 136.917 109.697 136.171 110.06 135.52C110.433 134.869 110.94 134.363 111.58 134C112.23 133.627 112.961 133.44 113.772 133.44C114.593 133.44 115.318 133.621 115.948 133.984C116.577 134.347 117.068 134.859 117.42 135.52C117.782 136.171 117.964 136.933 117.964 137.808C117.964 137.872 117.958 137.947 117.948 138.032C117.948 138.117 117.942 138.197 117.932 138.272H110.716V137.168H117.132L116.508 137.552C116.518 137.008 116.406 136.523 116.172 136.096C115.937 135.669 115.612 135.339 115.196 135.104C114.79 134.859 114.316 134.736 113.772 134.736C113.238 134.736 112.764 134.859 112.348 135.104C111.932 135.339 111.606 135.675 111.372 136.112C111.137 136.539 111.02 137.029 111.02 137.584V137.84C111.02 138.405 111.148 138.912 111.404 139.36C111.67 139.797 112.038 140.139 112.508 140.384C112.977 140.629 113.516 140.752 114.124 140.752C114.625 140.752 115.078 140.667 115.484 140.496C115.9 140.325 116.262 140.069 116.572 139.728L117.42 140.72C117.036 141.168 116.556 141.509 115.98 141.744C115.414 141.979 114.78 142.096 114.076 142.096ZM123.729 142.096C122.875 142.096 122.118 141.909 121.457 141.536C120.795 141.163 120.273 140.651 119.889 140C119.505 139.339 119.313 138.592 119.313 137.76C119.313 136.917 119.505 136.171 119.889 135.52C120.273 134.869 120.795 134.363 121.457 134C122.118 133.627 122.875 133.44 123.729 133.44C124.571 133.44 125.323 133.627 125.985 134C126.657 134.363 127.179 134.869 127.553 135.52C127.937 136.16 128.129 136.907 128.129 137.76C128.129 138.603 127.937 139.349 127.553 140C127.179 140.651 126.657 141.163 125.985 141.536C125.323 141.909 124.571 142.096 123.729 142.096ZM123.729 140.752C124.273 140.752 124.758 140.629 125.185 140.384C125.622 140.139 125.963 139.792 126.209 139.344C126.454 138.885 126.577 138.357 126.577 137.76C126.577 137.152 126.454 136.629 126.209 136.192C125.963 135.744 125.622 135.397 125.185 135.152C124.758 134.907 124.273 134.784 123.729 134.784C123.185 134.784 122.699 134.907 122.273 135.152C121.846 135.397 121.505 135.744 121.249 136.192C120.993 136.629 120.865 137.152 120.865 137.76C120.865 138.357 120.993 138.885 121.249 139.344C121.505 139.792 121.846 140.139 122.273 140.384C122.699 140.629 123.185 140.752 123.729 140.752ZM134.749 142.096C134.045 142.096 133.4 141.936 132.813 141.616C132.237 141.285 131.773 140.8 131.421 140.16C131.08 139.52 130.909 138.72 130.909 137.76C130.909 136.8 131.074 136 131.405 135.36C131.746 134.72 132.205 134.24 132.781 133.92C133.368 133.6 134.024 133.44 134.749 133.44C135.581 133.44 136.317 133.621 136.957 133.984C137.597 134.347 138.104 134.853 138.477 135.504C138.85 136.144 139.037 136.896 139.037 137.76C139.037 138.624 138.85 139.381 138.477 140.032C138.104 140.683 137.597 141.189 136.957 141.552C136.317 141.915 135.581 142.096 134.749 142.096ZM130.253 145.104V133.52H131.725V135.808L131.629 137.776L131.789 139.744V145.104H130.253ZM134.621 140.752C135.165 140.752 135.65 140.629 136.077 140.384C136.514 140.139 136.856 139.792 137.101 139.344C137.357 138.885 137.485 138.357 137.485 137.76C137.485 137.152 137.357 136.629 137.101 136.192C136.856 135.744 136.514 135.397 136.077 135.152C135.65 134.907 135.165 134.784 134.621 134.784C134.088 134.784 133.602 134.907 133.165 135.152C132.738 135.397 132.397 135.744 132.141 136.192C131.896 136.629 131.773 137.152 131.773 137.76C131.773 138.357 131.896 138.885 132.141 139.344C132.397 139.792 132.738 140.139 133.165 140.384C133.602 140.629 134.088 140.752 134.621 140.752ZM141.159 142V130.128H142.695V142H141.159ZM149.404 142.096C148.497 142.096 147.697 141.909 147.004 141.536C146.321 141.163 145.788 140.651 145.404 140C145.031 139.349 144.844 138.603 144.844 137.76C144.844 136.917 145.025 136.171 145.388 135.52C145.761 134.869 146.268 134.363 146.908 134C147.559 133.627 148.289 133.44 149.1 133.44C149.921 133.44 150.647 133.621 151.276 133.984C151.905 134.347 152.396 134.859 152.748 135.52C153.111 136.171 153.292 136.933 153.292 137.808C153.292 137.872 153.287 137.947 153.276 138.032C153.276 138.117 153.271 138.197 153.26 138.272H146.044V137.168H152.46L151.836 137.552C151.847 137.008 151.735 136.523 151.5 136.096C151.265 135.669 150.94 135.339 150.524 135.104C150.119 134.859 149.644 134.736 149.1 134.736C148.567 134.736 148.092 134.859 147.676 135.104C147.26 135.339 146.935 135.675 146.7 136.112C146.465 136.539 146.348 137.029 146.348 137.584V137.84C146.348 138.405 146.476 138.912 146.732 139.36C146.999 139.797 147.367 140.139 147.836 140.384C148.305 140.629 148.844 140.752 149.452 140.752C149.953 140.752 150.407 140.667 150.812 140.496C151.228 140.325 151.591 140.069 151.9 139.728L152.748 140.72C152.364 141.168 151.884 141.509 151.308 141.744C150.743 141.979 150.108 142.096 149.404 142.096ZM163.498 142.096C162.591 142.096 161.791 141.909 161.098 141.536C160.415 141.163 159.882 140.651 159.498 140C159.124 139.349 158.938 138.603 158.938 137.76C158.938 136.917 159.119 136.171 159.482 135.52C159.855 134.869 160.362 134.363 161.002 134C161.652 133.627 162.383 133.44 163.194 133.44C164.015 133.44 164.74 133.621 165.37 133.984C165.999 134.347 166.49 134.859 166.842 135.52C167.204 136.171 167.386 136.933 167.386 137.808C167.386 137.872 167.38 137.947 167.37 138.032C167.37 138.117 167.364 138.197 167.354 138.272H160.138V137.168H166.554L165.93 137.552C165.94 137.008 165.828 136.523 165.594 136.096C165.359 135.669 165.034 135.339 164.618 135.104C164.212 134.859 163.738 134.736 163.194 134.736C162.66 134.736 162.186 134.859 161.77 135.104C161.354 135.339 161.028 135.675 160.794 136.112C160.559 136.539 160.442 137.029 160.442 137.584V137.84C160.442 138.405 160.57 138.912 160.826 139.36C161.092 139.797 161.46 140.139 161.93 140.384C162.399 140.629 162.938 140.752 163.546 140.752C164.047 140.752 164.5 140.667 164.906 140.496C165.322 140.325 165.684 140.069 165.994 139.728L166.842 140.72C166.458 141.168 165.978 141.509 165.402 141.744C164.836 141.979 164.202 142.096 163.498 142.096ZM174.047 133.44C174.74 133.44 175.348 133.573 175.871 133.84C176.404 134.107 176.82 134.512 177.119 135.056C177.417 135.6 177.567 136.288 177.567 137.12V142H176.031V137.296C176.031 136.475 175.828 135.856 175.423 135.44C175.028 135.024 174.468 134.816 173.743 134.816C173.199 134.816 172.724 134.923 172.319 135.136C171.913 135.349 171.599 135.664 171.375 136.08C171.161 136.496 171.055 137.013 171.055 137.632V142H169.519V133.52H170.991V135.808L170.751 135.2C171.028 134.645 171.455 134.213 172.031 133.904C172.607 133.595 173.279 133.44 174.047 133.44ZM179.321 145.2C178.969 145.2 178.633 145.157 178.313 145.072C177.982 144.987 177.705 144.859 177.481 144.688L177.977 143.504C178.297 143.771 178.713 143.904 179.225 143.904C179.63 143.904 179.94 143.776 180.153 143.52C180.377 143.275 180.489 142.907 180.489 142.416V133.52H182.025V142.384C182.025 143.248 181.79 143.931 181.321 144.432C180.862 144.944 180.196 145.2 179.321 145.2ZM181.257 131.888C180.958 131.888 180.708 131.792 180.505 131.6C180.313 131.408 180.217 131.173 180.217 130.896C180.217 130.608 180.313 130.368 180.505 130.176C180.708 129.984 180.958 129.888 181.257 129.888C181.556 129.888 181.801 129.984 181.993 130.176C182.196 130.357 182.297 130.587 182.297 130.864C182.297 131.152 182.201 131.397 182.009 131.6C181.817 131.792 181.566 131.888 181.257 131.888ZM188.588 142.096C187.735 142.096 186.977 141.909 186.316 141.536C185.655 141.163 185.132 140.651 184.748 140C184.364 139.339 184.172 138.592 184.172 137.76C184.172 136.917 184.364 136.171 184.748 135.52C185.132 134.869 185.655 134.363 186.316 134C186.977 133.627 187.735 133.44 188.588 133.44C189.431 133.44 190.183 133.627 190.844 134C191.516 134.363 192.039 134.869 192.412 135.52C192.796 136.16 192.988 136.907 192.988 137.76C192.988 138.603 192.796 139.349 192.412 140C192.039 140.651 191.516 141.163 190.844 141.536C190.183 141.909 189.431 142.096 188.588 142.096ZM188.588 140.752C189.132 140.752 189.617 140.629 190.044 140.384C190.481 140.139 190.823 139.792 191.068 139.344C191.313 138.885 191.436 138.357 191.436 137.76C191.436 137.152 191.313 136.629 191.068 136.192C190.823 135.744 190.481 135.397 190.044 135.152C189.617 134.907 189.132 134.784 188.588 134.784C188.044 134.784 187.559 134.907 187.132 135.152C186.705 135.397 186.364 135.744 186.108 136.192C185.852 136.629 185.724 137.152 185.724 137.76C185.724 138.357 185.852 138.885 186.108 139.344C186.364 139.792 186.705 140.139 187.132 140.384C187.559 140.629 188.044 140.752 188.588 140.752ZM195.246 145.2C194.841 145.2 194.446 145.131 194.062 144.992C193.678 144.864 193.347 144.672 193.07 144.416L193.726 143.264C193.939 143.467 194.174 143.621 194.43 143.728C194.686 143.835 194.958 143.888 195.246 143.888C195.619 143.888 195.929 143.792 196.174 143.6C196.419 143.408 196.649 143.067 196.862 142.576L197.39 141.408L197.55 141.216L200.878 133.52H202.382L198.27 142.848C198.025 143.445 197.747 143.915 197.438 144.256C197.139 144.597 196.809 144.837 196.446 144.976C196.083 145.125 195.683 145.2 195.246 145.2ZM197.262 142.272L193.39 133.52H194.99L198.286 141.072L197.262 142.272ZM211.808 142.096C210.944 142.096 210.171 141.909 209.488 141.536C208.816 141.163 208.288 140.651 207.904 140C207.52 139.349 207.328 138.603 207.328 137.76C207.328 136.917 207.52 136.171 207.904 135.52C208.288 134.869 208.816 134.363 209.488 134C210.171 133.627 210.944 133.44 211.808 133.44C212.576 133.44 213.259 133.595 213.856 133.904C214.464 134.203 214.934 134.651 215.264 135.248L214.096 136C213.819 135.584 213.478 135.28 213.072 135.088C212.678 134.885 212.251 134.784 211.792 134.784C211.238 134.784 210.742 134.907 210.304 135.152C209.867 135.397 209.52 135.744 209.264 136.192C209.008 136.629 208.88 137.152 208.88 137.76C208.88 138.368 209.008 138.896 209.264 139.344C209.52 139.792 209.867 140.139 210.304 140.384C210.742 140.629 211.238 140.752 211.792 140.752C212.251 140.752 212.678 140.656 213.072 140.464C213.478 140.261 213.819 139.952 214.096 139.536L215.264 140.272C214.934 140.859 214.464 141.312 213.856 141.632C213.259 141.941 212.576 142.096 211.808 142.096ZM222.517 142V140.208L222.437 139.872V136.816C222.437 136.165 222.245 135.664 221.861 135.312C221.488 134.949 220.922 134.768 220.165 134.768C219.664 134.768 219.173 134.853 218.693 135.024C218.213 135.184 217.808 135.403 217.477 135.68L216.837 134.528C217.274 134.176 217.797 133.909 218.405 133.728C219.024 133.536 219.669 133.44 220.341 133.44C221.504 133.44 222.4 133.723 223.029 134.288C223.658 134.853 223.973 135.717 223.973 136.88V142H222.517ZM219.733 142.096C219.104 142.096 218.549 141.989 218.069 141.776C217.6 141.563 217.237 141.269 216.981 140.896C216.725 140.512 216.597 140.08 216.597 139.6C216.597 139.141 216.704 138.725 216.917 138.352C217.141 137.979 217.498 137.68 217.989 137.456C218.49 137.232 219.162 137.12 220.005 137.12H222.693V138.224H220.069C219.301 138.224 218.784 138.352 218.517 138.608C218.25 138.864 218.117 139.173 218.117 139.536C218.117 139.952 218.282 140.288 218.613 140.544C218.944 140.789 219.402 140.912 219.989 140.912C220.565 140.912 221.066 140.784 221.493 140.528C221.93 140.272 222.245 139.899 222.437 139.408L222.741 140.464C222.538 140.965 222.181 141.365 221.669 141.664C221.157 141.952 220.512 142.096 219.733 142.096ZM229.247 142.096C228.543 142.096 227.871 142 227.231 141.808C226.602 141.616 226.106 141.381 225.743 141.104L226.383 139.888C226.746 140.133 227.194 140.341 227.727 140.512C228.261 140.683 228.805 140.768 229.359 140.768C230.074 140.768 230.586 140.667 230.895 140.464C231.215 140.261 231.375 139.979 231.375 139.616C231.375 139.349 231.279 139.141 231.087 138.992C230.895 138.843 230.639 138.731 230.319 138.656C230.01 138.581 229.663 138.517 229.279 138.464C228.895 138.4 228.511 138.325 228.127 138.24C227.743 138.144 227.391 138.016 227.071 137.856C226.751 137.685 226.495 137.456 226.303 137.168C226.111 136.869 226.015 136.475 226.015 135.984C226.015 135.472 226.159 135.024 226.447 134.64C226.735 134.256 227.141 133.963 227.663 133.76C228.197 133.547 228.826 133.44 229.551 133.44C230.106 133.44 230.666 133.509 231.231 133.648C231.807 133.776 232.277 133.963 232.639 134.208L231.983 135.424C231.599 135.168 231.199 134.992 230.783 134.896C230.367 134.8 229.951 134.752 229.535 134.752C228.863 134.752 228.362 134.864 228.031 135.088C227.701 135.301 227.535 135.579 227.535 135.92C227.535 136.208 227.631 136.432 227.823 136.592C228.026 136.741 228.282 136.859 228.591 136.944C228.911 137.029 229.263 137.104 229.647 137.168C230.031 137.221 230.415 137.296 230.799 137.392C231.183 137.477 231.53 137.6 231.839 137.76C232.159 137.92 232.415 138.144 232.607 138.432C232.81 138.72 232.911 139.104 232.911 139.584C232.911 140.096 232.762 140.539 232.463 140.912C232.165 141.285 231.743 141.579 231.199 141.792C230.655 141.995 230.005 142.096 229.247 142.096ZM234.831 142V133.52H236.367V142H234.831ZM235.599 131.888C235.3 131.888 235.05 131.792 234.847 131.6C234.655 131.408 234.559 131.173 234.559 130.896C234.559 130.608 234.655 130.368 234.847 130.176C235.05 129.984 235.3 129.888 235.599 129.888C235.898 129.888 236.143 129.984 236.335 130.176C236.538 130.357 236.639 130.587 236.639 130.864C236.639 131.152 236.543 131.397 236.351 131.6C236.159 131.792 235.908 131.888 235.599 131.888ZM243.828 133.44C244.521 133.44 245.129 133.573 245.652 133.84C246.185 134.107 246.601 134.512 246.9 135.056C247.198 135.6 247.348 136.288 247.348 137.12V142H245.812V137.296C245.812 136.475 245.609 135.856 245.204 135.44C244.809 135.024 244.249 134.816 243.524 134.816C242.98 134.816 242.505 134.923 242.1 135.136C241.694 135.349 241.38 135.664 241.156 136.08C240.942 136.496 240.836 137.013 240.836 137.632V142H239.3V133.52H240.772V135.808L240.532 135.2C240.809 134.645 241.236 134.213 241.812 133.904C242.388 133.595 243.06 133.44 243.828 133.44ZM253.822 142.096C252.969 142.096 252.212 141.909 251.55 141.536C250.889 141.163 250.366 140.651 249.982 140C249.598 139.339 249.406 138.592 249.406 137.76C249.406 136.917 249.598 136.171 249.982 135.52C250.366 134.869 250.889 134.363 251.55 134C252.212 133.627 252.969 133.44 253.822 133.44C254.665 133.44 255.417 133.627 256.078 134C256.75 134.363 257.273 134.869 257.646 135.52C258.03 136.16 258.222 136.907 258.222 137.76C258.222 138.603 258.03 139.349 257.646 140C257.273 140.651 256.75 141.163 256.078 141.536C255.417 141.909 254.665 142.096 253.822 142.096ZM253.822 140.752C254.366 140.752 254.852 140.629 255.278 140.384C255.716 140.139 256.057 139.792 256.302 139.344C256.548 138.885 256.67 138.357 256.67 137.76C256.67 137.152 256.548 136.629 256.302 136.192C256.057 135.744 255.716 135.397 255.278 135.152C254.852 134.907 254.366 134.784 253.822 134.784C253.278 134.784 252.793 134.907 252.366 135.152C251.94 135.397 251.598 135.744 251.342 136.192C251.086 136.629 250.958 137.152 250.958 137.76C250.958 138.357 251.086 138.885 251.342 139.344C251.598 139.792 251.94 140.139 252.366 140.384C252.793 140.629 253.278 140.752 253.822 140.752ZM5.168 171.2C4.38933 171.2 3.632 171.088 2.896 170.864C2.17067 170.651 1.57867 170.341 1.12 169.936L1.856 168.752C2.25067 169.093 2.736 169.36 3.312 169.552C3.888 169.755 4.49067 169.856 5.12 169.856C6.12267 169.856 6.85867 169.621 7.328 169.152C7.79733 168.683 8.032 167.968 8.032 167.008V165.216L8.192 163.536L8.112 161.84V159.52H9.568V166.848C9.568 168.341 9.19467 169.44 8.448 170.144C7.70133 170.848 6.608 171.2 5.168 171.2ZM4.976 167.648C4.15467 167.648 3.41867 167.477 2.768 167.136C2.128 166.784 1.616 166.299 1.232 165.68C0.858667 165.061 0.672 164.347 0.672 163.536C0.672 162.715 0.858667 162 1.232 161.392C1.616 160.773 2.128 160.293 2.768 159.952C3.41867 159.611 4.15467 159.44 4.976 159.44C5.70133 159.44 6.36267 159.589 6.96 159.888C7.55733 160.176 8.032 160.624 8.384 161.232C8.74667 161.84 8.928 162.608 8.928 163.536C8.928 164.453 8.74667 165.216 8.384 165.824C8.032 166.432 7.55733 166.891 6.96 167.2C6.36267 167.499 5.70133 167.648 4.976 167.648ZM5.152 166.304C5.71733 166.304 6.21867 166.187 6.656 165.952C7.09333 165.717 7.43467 165.392 7.68 164.976C7.936 164.56 8.064 164.08 8.064 163.536C8.064 162.992 7.936 162.512 7.68 162.096C7.43467 161.68 7.09333 161.36 6.656 161.136C6.21867 160.901 5.71733 160.784 5.152 160.784C4.58667 160.784 4.08 160.901 3.632 161.136C3.19467 161.36 2.848 161.68 2.592 162.096C2.34667 162.512 2.224 162.992 2.224 163.536C2.224 164.08 2.34667 164.56 2.592 164.976C2.848 165.392 3.19467 165.717 3.632 165.952C4.08 166.187 4.58667 166.304 5.152 166.304ZM17.7669 168V166.208L17.6869 165.872V162.816C17.6869 162.165 17.4949 161.664 17.1109 161.312C16.7375 160.949 16.1722 160.768 15.4149 160.768C14.9135 160.768 14.4229 160.853 13.9429 161.024C13.4629 161.184 13.0575 161.403 12.7269 161.68L12.0869 160.528C12.5242 160.176 13.0469 159.909 13.6549 159.728C14.2735 159.536 14.9189 159.44 15.5909 159.44C16.7535 159.44 17.6495 159.723 18.2789 160.288C18.9082 160.853 19.2229 161.717 19.2229 162.88V168H17.7669ZM14.9829 168.096C14.3535 168.096 13.7989 167.989 13.3189 167.776C12.8495 167.563 12.4869 167.269 12.2309 166.896C11.9749 166.512 11.8469 166.08 11.8469 165.6C11.8469 165.141 11.9535 164.725 12.1669 164.352C12.3909 163.979 12.7482 163.68 13.2389 163.456C13.7402 163.232 14.4122 163.12 15.2549 163.12H17.9429V164.224H15.3189C14.5509 164.224 14.0335 164.352 13.7669 164.608C13.5002 164.864 13.3669 165.173 13.3669 165.536C13.3669 165.952 13.5322 166.288 13.8629 166.544C14.1935 166.789 14.6522 166.912 15.2389 166.912C15.8149 166.912 16.3162 166.784 16.7429 166.528C17.1802 166.272 17.4949 165.899 17.6869 165.408L17.9909 166.464C17.7882 166.965 17.4309 167.365 16.9189 167.664C16.4069 167.952 15.7615 168.096 14.9829 168.096ZM32.6734 159.44C33.356 159.44 33.9587 159.573 34.4814 159.84C35.004 160.107 35.4094 160.512 35.6974 161.056C35.996 161.6 36.1454 162.288 36.1454 163.12V168H34.6094V163.296C34.6094 162.475 34.4174 161.856 34.0334 161.44C33.6494 161.024 33.1107 160.816 32.4174 160.816C31.9054 160.816 31.4574 160.923 31.0734 161.136C30.6894 161.349 30.3907 161.664 30.1774 162.08C29.9747 162.496 29.8734 163.013 29.8734 163.632V168H28.3374V163.296C28.3374 162.475 28.1454 161.856 27.7614 161.44C27.388 161.024 26.8494 160.816 26.1454 160.816C25.644 160.816 25.2014 160.923 24.8174 161.136C24.4334 161.349 24.1347 161.664 23.9214 162.08C23.708 162.496 23.6014 163.013 23.6014 163.632V168H22.0654V159.52H23.5374V161.776L23.2974 161.2C23.564 160.645 23.9747 160.213 24.5294 159.904C25.084 159.595 25.7294 159.44 26.4654 159.44C27.276 159.44 27.9747 159.643 28.5614 160.048C29.148 160.443 29.532 161.045 29.7134 161.856L29.0894 161.6C29.3454 160.949 29.7934 160.427 30.4334 160.032C31.0734 159.637 31.82 159.44 32.6734 159.44ZM43.4676 168.096C42.7423 168.096 42.0863 167.936 41.4996 167.616C40.9236 167.285 40.465 166.8 40.1236 166.16C39.793 165.52 39.6276 164.72 39.6276 163.76C39.6276 162.8 39.7983 162 40.1396 161.36C40.4916 160.72 40.9556 160.24 41.5316 159.92C42.1183 159.6 42.7636 159.44 43.4676 159.44C44.2996 159.44 45.0356 159.621 45.6756 159.984C46.3156 160.347 46.8223 160.853 47.1956 161.504C47.569 162.144 47.7556 162.896 47.7556 163.76C47.7556 164.624 47.569 165.381 47.1956 166.032C46.8223 166.683 46.3156 167.189 45.6756 167.552C45.0356 167.915 44.2996 168.096 43.4676 168.096ZM38.9716 168V156.128H40.5076V161.776L40.3476 163.744L40.4436 165.712V168H38.9716ZM43.3396 166.752C43.8836 166.752 44.369 166.629 44.7956 166.384C45.233 166.139 45.5743 165.792 45.8196 165.344C46.0756 164.885 46.2036 164.357 46.2036 163.76C46.2036 163.152 46.0756 162.629 45.8196 162.192C45.5743 161.744 45.233 161.397 44.7956 161.152C44.369 160.907 43.8836 160.784 43.3396 160.784C42.8063 160.784 42.321 160.907 41.8836 161.152C41.457 161.397 41.1156 161.744 40.8596 162.192C40.6143 162.629 40.4916 163.152 40.4916 163.76C40.4916 164.357 40.6143 164.885 40.8596 165.344C41.1156 165.792 41.457 166.139 41.8836 166.384C42.321 166.629 42.8063 166.752 43.3396 166.752ZM49.8779 168V156.128H51.4139V168H49.8779ZM54.3466 168V159.52H55.8826V168H54.3466ZM55.1146 157.888C54.816 157.888 54.5653 157.792 54.3626 157.6C54.1706 157.408 54.0746 157.173 54.0746 156.896C54.0746 156.608 54.1706 156.368 54.3626 156.176C54.5653 155.984 54.816 155.888 55.1146 155.888C55.4133 155.888 55.6586 155.984 55.8506 156.176C56.0533 156.357 56.1546 156.587 56.1546 156.864C56.1546 157.152 56.0586 157.397 55.8666 157.6C55.6746 157.792 55.424 157.888 55.1146 157.888ZM63.3434 159.44C64.0367 159.44 64.6447 159.573 65.1674 159.84C65.7007 160.107 66.1167 160.512 66.4154 161.056C66.714 161.6 66.8634 162.288 66.8634 163.12V168H65.3274V163.296C65.3274 162.475 65.1247 161.856 64.7194 161.44C64.3247 161.024 63.7647 160.816 63.0394 160.816C62.4954 160.816 62.0207 160.923 61.6154 161.136C61.21 161.349 60.8954 161.664 60.6714 162.08C60.458 162.496 60.3514 163.013 60.3514 163.632V168H58.8154V159.52H60.2874V161.808L60.0474 161.2C60.3247 160.645 60.7514 160.213 61.3274 159.904C61.9034 159.595 62.5754 159.44 63.3434 159.44ZM73.418 171.2C72.6393 171.2 71.882 171.088 71.146 170.864C70.4207 170.651 69.8287 170.341 69.37 169.936L70.106 168.752C70.5007 169.093 70.986 169.36 71.562 169.552C72.138 169.755 72.7407 169.856 73.37 169.856C74.3727 169.856 75.1087 169.621 75.578 169.152C76.0473 168.683 76.282 167.968 76.282 167.008V165.216L76.442 163.536L76.362 161.84V159.52H77.818V166.848C77.818 168.341 77.4447 169.44 76.698 170.144C75.9513 170.848 74.858 171.2 73.418 171.2ZM73.226 167.648C72.4047 167.648 71.6687 167.477 71.018 167.136C70.378 166.784 69.866 166.299 69.482 165.68C69.1087 165.061 68.922 164.347 68.922 163.536C68.922 162.715 69.1087 162 69.482 161.392C69.866 160.773 70.378 160.293 71.018 159.952C71.6687 159.611 72.4047 159.44 73.226 159.44C73.9513 159.44 74.6127 159.589 75.21 159.888C75.8073 160.176 76.282 160.624 76.634 161.232C76.9967 161.84 77.178 162.608 77.178 163.536C77.178 164.453 76.9967 165.216 76.634 165.824C76.282 166.432 75.8073 166.891 75.21 167.2C74.6127 167.499 73.9513 167.648 73.226 167.648ZM73.402 166.304C73.9673 166.304 74.4687 166.187 74.906 165.952C75.3433 165.717 75.6847 165.392 75.93 164.976C76.186 164.56 76.314 164.08 76.314 163.536C76.314 162.992 76.186 162.512 75.93 162.096C75.6847 161.68 75.3433 161.36 74.906 161.136C74.4687 160.901 73.9673 160.784 73.402 160.784C72.8367 160.784 72.33 160.901 71.882 161.136C71.4447 161.36 71.098 161.68 70.842 162.096C70.5967 162.512 70.474 162.992 70.474 163.536C70.474 164.08 70.5967 164.56 70.842 164.976C71.098 165.392 71.4447 165.717 71.882 165.952C72.33 166.187 72.8367 166.304 73.402 166.304ZM80.1449 170.368L80.9449 167.136L81.1529 168.064C80.8435 168.064 80.5822 167.968 80.3689 167.776C80.1662 167.584 80.0649 167.323 80.0649 166.992C80.0649 166.672 80.1662 166.411 80.3689 166.208C80.5822 166.005 80.8382 165.904 81.1369 165.904C81.4462 165.904 81.6969 166.011 81.8889 166.224C82.0809 166.427 82.1769 166.683 82.1769 166.992C82.1769 167.099 82.1662 167.205 82.1449 167.312C82.1342 167.408 82.1075 167.525 82.0649 167.664C82.0329 167.792 81.9795 167.952 81.9049 168.144L81.1529 170.368H80.1449Z" fill="#544837"/>
<path d="M4.686 92.684H12.364V95.104H4.686V92.684ZM4.928 101H2.068V85.6H13.31V87.998H4.928V101ZM15.8118 101V89.252H18.5618V101H15.8118ZM17.1978 87.316C16.6845 87.316 16.2591 87.1547 15.9218 86.832C15.5991 86.5093 15.4378 86.1207 15.4378 85.666C15.4378 85.1967 15.5991 84.808 15.9218 84.5C16.2591 84.1773 16.6845 84.016 17.1978 84.016C17.7111 84.016 18.1291 84.17 18.4518 84.478C18.7891 84.7713 18.9578 85.1453 18.9578 85.6C18.9578 86.084 18.7965 86.4947 18.4738 86.832C18.1511 87.1547 17.7258 87.316 17.1978 87.316ZM22.1712 101V89.252H24.7892V92.486L24.4812 91.54C24.8332 90.748 25.3832 90.1467 26.1312 89.736C26.8939 89.3253 27.8399 89.12 28.9692 89.12V91.738C28.8519 91.7087 28.7419 91.694 28.6392 91.694C28.5365 91.6793 28.4339 91.672 28.3312 91.672C27.2899 91.672 26.4612 91.98 25.8452 92.596C25.2292 93.1973 24.9212 94.0993 24.9212 95.302V101H22.1712ZM35.0395 101.154C34.0568 101.154 33.1108 101.029 32.2015 100.78C31.3068 100.516 30.5955 100.201 30.0675 99.834L31.1235 97.744C31.6515 98.0813 32.2821 98.36 33.0155 98.58C33.7488 98.8 34.4821 98.91 35.2155 98.91C36.0808 98.91 36.7041 98.7927 37.0855 98.558C37.4815 98.3233 37.6795 98.008 37.6795 97.612C37.6795 97.2893 37.5475 97.0473 37.2835 96.886C37.0195 96.71 36.6748 96.578 36.2495 96.49C35.8241 96.402 35.3475 96.3213 34.8195 96.248C34.3061 96.1747 33.7855 96.0793 33.2575 95.962C32.7441 95.83 32.2748 95.6467 31.8495 95.412C31.4241 95.1627 31.0795 94.8327 30.8155 94.422C30.5515 94.0113 30.4195 93.4687 30.4195 92.794C30.4195 92.046 30.6321 91.4007 31.0575 90.858C31.4828 90.3007 32.0768 89.8753 32.8395 89.582C33.6168 89.274 34.5335 89.12 35.5895 89.12C36.3815 89.12 37.1808 89.208 37.9875 89.384C38.7941 89.56 39.4615 89.8093 39.9895 90.132L38.9335 92.222C38.3761 91.8847 37.8115 91.6573 37.2395 91.54C36.6821 91.408 36.1248 91.342 35.5675 91.342C34.7315 91.342 34.1081 91.4667 33.6975 91.716C33.3015 91.9653 33.1035 92.2807 33.1035 92.662C33.1035 93.014 33.2355 93.278 33.4995 93.454C33.7635 93.63 34.1081 93.7693 34.5335 93.872C34.9588 93.9747 35.4281 94.0627 35.9415 94.136C36.4695 94.1947 36.9901 94.29 37.5035 94.422C38.0168 94.554 38.4861 94.7373 38.9115 94.972C39.3515 95.192 39.7035 95.5073 39.9675 95.918C40.2315 96.3287 40.3635 96.864 40.3635 97.524C40.3635 98.2573 40.1435 98.8953 39.7035 99.438C39.2781 99.9807 38.6695 100.406 37.8775 100.714C37.0855 101.007 36.1395 101.154 35.0395 101.154ZM47.1537 101.154C45.8631 101.154 44.8657 100.824 44.1617 100.164C43.4577 99.4893 43.1057 98.4993 43.1057 97.194V86.656H45.8557V97.128C45.8557 97.6853 45.9951 98.118 46.2737 98.426C46.5671 98.734 46.9704 98.888 47.4837 98.888C48.0997 98.888 48.6131 98.7267 49.0237 98.404L49.7937 100.362C49.4711 100.626 49.0751 100.824 48.6057 100.956C48.1364 101.088 47.6524 101.154 47.1537 101.154ZM41.1697 91.54V89.34H49.0017V91.54H41.1697ZM63.526 101.154C62.294 101.154 61.194 100.897 60.226 100.384C59.2727 99.856 58.5247 99.1373 57.982 98.228C57.4394 97.3187 57.168 96.2847 57.168 95.126C57.168 93.9527 57.4394 92.9187 57.982 92.024C58.5247 91.1147 59.2727 90.4033 60.226 89.89C61.194 89.3767 62.294 89.12 63.526 89.12C64.67 89.12 65.6747 89.3547 66.54 89.824C67.42 90.2787 68.0874 90.9533 68.542 91.848L66.43 93.08C66.078 92.5227 65.6454 92.112 65.132 91.848C64.6334 91.584 64.0907 91.452 63.504 91.452C62.8294 91.452 62.2207 91.5987 61.678 91.892C61.1354 92.1853 60.71 92.6107 60.402 93.168C60.094 93.7107 59.94 94.3633 59.94 95.126C59.94 95.8887 60.094 96.5487 60.402 97.106C60.71 97.6487 61.1354 98.0667 61.678 98.36C62.2207 98.6533 62.8294 98.8 63.504 98.8C64.0907 98.8 64.6334 98.668 65.132 98.404C65.6454 98.14 66.078 97.7293 66.43 97.172L68.542 98.404C68.0874 99.284 67.42 99.966 66.54 100.45C65.6747 100.919 64.67 101.154 63.526 101.154ZM70.8118 101V84.676H73.5618V101H70.8118ZM77.1712 101V89.252H79.9212V101H77.1712ZM78.5572 87.316C78.0439 87.316 77.6185 87.1547 77.2812 86.832C76.9585 86.5093 76.7972 86.1207 76.7972 85.666C76.7972 85.1967 76.9585 84.808 77.2812 84.5C77.6185 84.1773 78.0439 84.016 78.5572 84.016C79.0705 84.016 79.4885 84.17 79.8112 84.478C80.1485 84.7713 80.3172 85.1453 80.3172 85.6C80.3172 86.084 80.1559 86.4947 79.8332 86.832C79.5105 87.1547 79.0852 87.316 78.5572 87.316ZM88.9206 101.154C87.6886 101.154 86.5886 100.897 85.6206 100.384C84.6672 99.856 83.9192 99.1373 83.3766 98.228C82.8339 97.3187 82.5626 96.2847 82.5626 95.126C82.5626 93.9527 82.8339 92.9187 83.3766 92.024C83.9192 91.1147 84.6672 90.4033 85.6206 89.89C86.5886 89.3767 87.6886 89.12 88.9206 89.12C90.0646 89.12 91.0692 89.3547 91.9346 89.824C92.8146 90.2787 93.4819 90.9533 93.9366 91.848L91.8246 93.08C91.4726 92.5227 91.0399 92.112 90.5266 91.848C90.0279 91.584 89.4852 91.452 88.8986 91.452C88.2239 91.452 87.6152 91.5987 87.0726 91.892C86.5299 92.1853 86.1046 92.6107 85.7966 93.168C85.4886 93.7107 85.3346 94.3633 85.3346 95.126C85.3346 95.8887 85.4886 96.5487 85.7966 97.106C86.1046 97.6487 86.5299 98.0667 87.0726 98.36C87.6152 98.6533 88.2239 98.8 88.8986 98.8C89.4852 98.8 90.0279 98.668 90.5266 98.404C91.0399 98.14 91.4726 97.7293 91.8246 97.172L93.9366 98.404C93.4819 99.284 92.8146 99.966 91.9346 100.45C91.0692 100.919 90.0646 101.154 88.9206 101.154ZM98.4503 98.382L98.5163 94.928L104.654 89.252H107.954L102.74 94.488L101.288 95.698L98.4503 98.382ZM96.2063 101V84.676H98.9563V101H96.2063ZM105.072 101L100.782 95.698L102.52 93.498L108.416 101H105.072ZM120.695 101.154C119.404 101.154 118.407 100.824 117.703 100.164C116.999 99.4893 116.647 98.4993 116.647 97.194V86.656H119.397V97.128C119.397 97.6853 119.536 98.118 119.815 98.426C120.108 98.734 120.511 98.888 121.025 98.888C121.641 98.888 122.154 98.7267 122.565 98.404L123.335 100.362C123.012 100.626 122.616 100.824 122.147 100.956C121.677 101.088 121.193 101.154 120.695 101.154ZM114.711 91.54V89.34H122.543V91.54H114.711ZM130.732 101.154C129.427 101.154 128.283 100.897 127.3 100.384C126.332 99.856 125.577 99.1373 125.034 98.228C124.506 97.3187 124.242 96.2847 124.242 95.126C124.242 93.9527 124.499 92.9187 125.012 92.024C125.54 91.1147 126.259 90.4033 127.168 89.89C128.092 89.3767 129.141 89.12 130.314 89.12C131.458 89.12 132.478 89.3693 133.372 89.868C134.267 90.3667 134.971 91.0707 135.484 91.98C135.998 92.8893 136.254 93.96 136.254 95.192C136.254 95.3093 136.247 95.4413 136.232 95.588C136.232 95.7347 136.225 95.874 136.21 96.006H126.42V94.18H134.758L133.68 94.752C133.695 94.0773 133.556 93.4833 133.262 92.97C132.969 92.4567 132.566 92.0533 132.052 91.76C131.554 91.4667 130.974 91.32 130.314 91.32C129.64 91.32 129.046 91.4667 128.532 91.76C128.034 92.0533 127.638 92.464 127.344 92.992C127.066 93.5053 126.926 94.114 126.926 94.818V95.258C126.926 95.962 127.088 96.5853 127.41 97.128C127.733 97.6707 128.188 98.0887 128.774 98.382C129.361 98.6753 130.036 98.822 130.798 98.822C131.458 98.822 132.052 98.7193 132.58 98.514C133.108 98.3087 133.578 97.986 133.988 97.546L135.462 99.24C134.934 99.856 134.267 100.333 133.46 100.67C132.668 100.993 131.759 101.154 130.732 101.154ZM142.526 101.154C141.543 101.154 140.597 101.029 139.688 100.78C138.793 100.516 138.082 100.201 137.554 99.834L138.61 97.744C139.138 98.0813 139.768 98.36 140.502 98.58C141.235 98.8 141.968 98.91 142.702 98.91C143.567 98.91 144.19 98.7927 144.572 98.558C144.968 98.3233 145.166 98.008 145.166 97.612C145.166 97.2893 145.034 97.0473 144.77 96.886C144.506 96.71 144.161 96.578 143.736 96.49C143.31 96.402 142.834 96.3213 142.306 96.248C141.792 96.1747 141.272 96.0793 140.744 95.962C140.23 95.83 139.761 95.6467 139.336 95.412C138.91 95.1627 138.566 94.8327 138.302 94.422C138.038 94.0113 137.906 93.4687 137.906 92.794C137.906 92.046 138.118 91.4007 138.544 90.858C138.969 90.3007 139.563 89.8753 140.326 89.582C141.103 89.274 142.02 89.12 143.076 89.12C143.868 89.12 144.667 89.208 145.474 89.384C146.28 89.56 146.948 89.8093 147.476 90.132L146.42 92.222C145.862 91.8847 145.298 91.6573 144.726 91.54C144.168 91.408 143.611 91.342 143.054 91.342C142.218 91.342 141.594 91.4667 141.184 91.716C140.788 91.9653 140.59 92.2807 140.59 92.662C140.59 93.014 140.722 93.278 140.986 93.454C141.25 93.63 141.594 93.7693 142.02 93.872C142.445 93.9747 142.914 94.0627 143.428 94.136C143.956 94.1947 144.476 94.29 144.99 94.422C145.503 94.554 145.972 94.7373 146.398 94.972C146.838 95.192 147.19 95.5073 147.454 95.918C147.718 96.3287 147.85 96.864 147.85 97.524C147.85 98.2573 147.63 98.8953 147.19 99.438C146.764 99.9807 146.156 100.406 145.364 100.714C144.572 101.007 143.626 101.154 142.526 101.154ZM154.64 101.154C153.349 101.154 152.352 100.824 151.648 100.164C150.944 99.4893 150.592 98.4993 150.592 97.194V86.656H153.342V97.128C153.342 97.6853 153.481 98.118 153.76 98.426C154.053 98.734 154.457 98.888 154.97 98.888C155.586 98.888 156.099 98.7267 156.51 98.404L157.28 100.362C156.957 100.626 156.561 100.824 156.092 100.956C155.623 101.088 155.139 101.154 154.64 101.154ZM148.656 91.54V89.34H156.488V91.54H148.656ZM163.172 101.154C162.19 101.154 161.244 101.029 160.334 100.78C159.44 100.516 158.728 100.201 158.2 99.834L159.256 97.744C159.784 98.0813 160.415 98.36 161.148 98.58C161.882 98.8 162.615 98.91 163.348 98.91C164.214 98.91 164.837 98.7927 165.218 98.558C165.614 98.3233 165.812 98.008 165.812 97.612C165.812 97.2893 165.68 97.0473 165.416 96.886C165.152 96.71 164.808 96.578 164.382 96.49C163.957 96.402 163.48 96.3213 162.952 96.248C162.439 96.1747 161.918 96.0793 161.39 95.962C160.877 95.83 160.408 95.6467 159.982 95.412C159.557 95.1627 159.212 94.8327 158.948 94.422C158.684 94.0113 158.552 93.4687 158.552 92.794C158.552 92.046 158.765 91.4007 159.19 90.858C159.616 90.3007 160.21 89.8753 160.972 89.582C161.75 89.274 162.666 89.12 163.722 89.12C164.514 89.12 165.314 89.208 166.12 89.384C166.927 89.56 167.594 89.8093 168.122 90.132L167.066 92.222C166.509 91.8847 165.944 91.6573 165.372 91.54C164.815 91.408 164.258 91.342 163.7 91.342C162.864 91.342 162.241 91.4667 161.83 91.716C161.434 91.9653 161.236 92.2807 161.236 92.662C161.236 93.014 161.368 93.278 161.632 93.454C161.896 93.63 162.241 93.7693 162.666 93.872C163.092 93.9747 163.561 94.0627 164.074 94.136C164.602 94.1947 165.123 94.29 165.636 94.422C166.15 94.554 166.619 94.7373 167.044 94.972C167.484 95.192 167.836 95.5073 168.1 95.918C168.364 96.3287 168.496 96.864 168.496 97.524C168.496 98.2573 168.276 98.8953 167.836 99.438C167.411 99.9807 166.802 100.406 166.01 100.714C165.218 101.007 164.272 101.154 163.172 101.154Z" fill="#2F281E"/>
</svg>
